<svg xmlns="http://www.w3.org/2000/svg" width="140" height="71" viewBox="0 0 140 71">
    <g fill="#223547" fill-rule="evenodd">
        <path d="M75.966 8C76.517 8 77 7.572 77 7c0-.571-.483-1-1.034-1-.552 0-.966.429-.966 1 0 .572.414 1 .966 1M64.5 6c.292 0 .5-.25.5-.5 0-.292-.208-.5-.5-.5-.292 0-.5.208-.5.5 0 .25.208.5.5.5M56.324 23L56 22.653c.918-.926 1.837-2.315 1.999-3.125.108-.81 1.189-.637.972.174-.27 1.099-1.458 2.372-2.647 3.298M49.072 6.263c-1.684.743-1.909 2.515-.73 3.602 1.404 1.258 3.819.171 3.594-1.83 1.91.114 3.144-1.944 2.864-3.316.842-.743.898-2.344-.113-2.973-1.122-.686-2.133-.457-2.807.858-1.741-.115-3.425 1.257-2.808 3.659l-.786-.343c-1.067-2.344.786-4.688 3.088-4.117.506-1.143 2.19-2.344 4.1-1.2 1.46.914 1.797 3.316.224 4.459.73 2.173-.786 4.002-3.032 3.774-.28 2.858-2.864 3.201-4.604 1.886-.955-.8-1.348-1.83-1.517-2.63-.224-.857-.224-1.6-1.01-2.458-.618-.63-1.741-.63-1.741-.63 0-2.057-1.853-3.944-4.211-3.03-.843-.742-1.91-.8-2.64.115-.392.515-.673 1.887.674 2.516-.056 1.886 1.348 3.087 3.426 2.916.056.972 1.123 1.944 2.133 2.058l-.056.514c-1.01-.114-1.572.229-2.246 1.087-2.414-.115-4.099 1.029-4.043 2.801-1.684.286-2.021 2.116-1.067 3.088.955.971 2.359.571 2.864-.572 1.74.343 3.257-.915 3.313-2.345 1.572 0 2.303-.685 2.583-2.172l.561.057c.169 1.601-.56 3.145-2.47 2.973-.057 1.944-1.853 2.973-3.594 2.345-.786 1.543-2.64 2.115-4.155.628a2.669 2.669 0 0 1 1.01-4.516c0-1.887 1.405-3.66 4.044-2.974 0 0 .337-.857 1.179-.914-.562-.229-.955-.515-1.067-1.144-2.021.458-3.706-1.43-3.257-3.316-1.797-.972-1.853-2.801-.955-3.887.955-1.144 2.527-1.373 3.875-.172 2.414-1.315 5.054.343 4.885 3.087 1.684-.114 2.695 1.315 2.47 2.859.282-.686.618-.972 1.236-1.086l.786.343z"/>
        <path d="M53.582 3l.418.3c-.836 1.808-2.269 3.616-3.522 4.7L50 7.578c.896-1.445 2.746-3.855 3.582-4.578M41.78 12l.22.414c-.932.879-2.685 2.12-3.671 2.586L38 14.586c.877-.93 2.63-2.12 3.78-2.586M44 7.48l-.465.52C42.198 7.221 39.581 5.143 39 4.364L39.407 4c1.28.571 3.72 2.545 4.593 3.48M41.281 28.983c.171.758 0 1.634.685 2.45.228.292 1.54 2.042 2.511 2.917-1.312.525-3.881 1.633-5.707 1.866-.4.059-.8.292-1.142.525-.228.409-.456 1.109-.57 1.926C37 39.25 37 39.892 37 40.533c0 .584.285 2.45.914 3.676.627 1.224 1.255 1.808 1.997 2.158.172-.059.514-.117 1.028-.117 1.37-.059 2.454.759 2.968 1.4.17.292.57.35 1.027.35 1.142 0 2.397-.408 3.539-.875.285-.175.97-.7 1.655-1.225.742-.583 4.623-3.967 6.335-4.783.914.466 2.398 1.108 3.939 1.108.057 0 .342.058.685-.058.457-.117 1.084-.292 1.883-.467 1.37-.292 2.968-.526 3.482-.526 1.256.06 4.966.118 5.88.118.912 0 2.225-.059 2.739-.118.8-.29 2.568-.757 4.224-1.516 1.655-.758 5.137-3.266 5.707-3.85.286-.233.571-.525.742-.758.057-.117.114-.175.114-.234 0-.058-.057-2.508-.057-2.508s.857-.933 1.199-1.283v-.117c-.171-.467-.285-1.983-.228-3.5l-.8-.408c-.056 1.866-.741 3.5-1.37 4.55-1.255.175-3.71.933-4.565 1.983l.513.117c.8-.467 1.656-.759 2.683-.759.856 0 1.256.234 1.256.467 0 .175-.171.583-.229.758-.057.117-.114.35-.285.467-1.199 1.342-2.511 2.45-4.167 3.383-1.084.642-2.169 1.05-3.767 1.576-.514.116-1.198.291-1.598.467-.628 0-3.824-.117-5.708-.117-1.883 0-5.765.291-6.963.583-.571.175-.742.408-1.37.408-1.199 0-2.797-.641-3.767-1.108-.172 0-.514.175-.856.35-.685.35-2.227 2.567-3.14 1.867-.456.991-2.454 1.867-3.082 2.858.057-.467.856-3.85.913-4.55 0-.117.058-.234-.057-.35-.685-1.225-2.74-1.984-3.88-2.217-.286-.058-.457-.116-.686-.175l-1.826-.525-1.656.525 1.941.35-2.455 1.692c.457-.175 3.083-.933 3.254-.992.229-.058.514-.116.799 0 .4.117 1.37.35 1.998.584.342.116.913.758 1.084 1.108.057.175.057.466.115 1.167a7.27 7.27 0 0 1-.172 1.516c-.285 1.226-.856 2.159-1.027 2.509-.228.467-.514.642-.856.758-.514.292-1.199.409-1.884.466-.513 0-.856-.057-1.084-.35-.628-.933-2.283-1.808-3.939-1.457-1.027-.642-2.054-2.684-2.054-4.317 0-.992.456-2.567.742-3.325 1.655-.234 5.023-1.517 6.62-2.275.343 0 1.313-.35 2.227-.35 2.169 0 4.338 1.925 5.65 3.266.228-.35.628-.933 1.77-.933 1.54 0 2.454 1.458 2.854 2.917l.799-.584c-.115-.816-.571-1.75-1.199-2.45-.514-.525-1.541-.992-2.34-.992-.514 0-.97.117-1.313.117-1.085 0-1.541-.525-2.397-1.108-.857-.583-2.512-1.517-3.71-1.517-.742 0-1.085.292-1.712.292-.914 0-1.256-.35-1.656-.934-.228-.233-1.142-1.05-1.37-1.4-.17-.233-.4-.991-.514-1.4l-1.255-.933z"/>
        <path d="M42.69 30.66c.284.29.512.578.853.867.342.232.74.464 1.081.695.57.29 1.195.637 1.765.868.569.116 1.251.174 1.878.174.91 0 1.991-.174 2.902.289.626.231.626.926 1.139 1.1.74.289 2.788.347 3.927.347 2.276 0 4.723-.29 6.203-.637l-.683-.81c-1.024.174-3.984.52-5.35.52-1.878 0-3.7-.346-3.7-1.099 0-.578.57-1.388 1.708-1.388 1.196 0 3.017.752 3.358.868.342.057.456.057.683-.058l.683-.348c-.91-.462-4.155-1.562-5.293-1.562-.512 0-.854.058-1.195.52-.398.58-1.594 1.1-3.415 1.1-1.024 0-2.504-.231-2.788-.347-.57-.232-1.65-.868-2.334-1.389-.91-.636-1.707-1.388-2.22-2.256a1.399 1.399 0 0 1-.284-.81c0-.232.114-.406.114-.58.17.233.341.406.569.58.967.983 2.39 1.678 3.87 1.967.455.116.797.174 1.252.174.626 0 1.195-.348 1.594-.695l-.626-.694c-.171.058-.57.058-.797.058-2.163 0-4.895-1.39-5.52-3.067-.058-.174-.171-.232-.058-.406.057-.173.114-.462.171-.751.114.115.398.347.683.578.797.52 2.333 1.215 2.675 1.447.74-.232 1.309-.521 1.764-.752.456-.232 1.082-.464 1.764-.464 1.594 0 3.415.927 5.123 1.795l1.138-.464c-1.537-1.099-4.781-2.603-6.602-2.603-1.082 0-2.106.81-2.846.81-.853 0-3.358-1.273-3.358-2.315 0-.81 1.594-1.273 4.269-1.562-.456.636-.91 1.388-1.309 2.083l.683.405c4.097-6.076 8.423-10.011 12.008-12.441 1.31-.868 1.594-1.39 2.05-2.315 1.138-2.373 2.22-4.108 4.04-4.108.854 0 1.537.462 2.05 1.041l1.308.405-1.366.926 1.366.579c-1.764.52-4.211 2.314-5.236 4.918-1.878.059-2.789 1.678-3.415 2.952-.455.925-1.081 1.273-2.106 1.91l-7.797 5.554 1.082.174 7.228-4.919c1.423-.983 2.105-1.736 2.447-2.372.626-1.389 1.366-2.43 2.789-2.43.683 0 1.423.346 2.049.925l1.252.405-1.366.868 1.138.694c-3.3 1.042-5.35 3.473-6.545 8.102l.854.174c.455-1.505.91-2.894 1.65-4.167 1.935 0 3.87-.058 5.805-.058 5.066 0 9.277.232 11.554.868l-.797-1.389c-2.447-.463-5.976-.636-10.757-.636-1.65 0-3.244.058-4.894.058 1.081-1.1 2.56-2.084 4.894-2.778l-1.65-.926 1.821-1.041-2.504-.926c-.398-.405-.967-.81-1.65-.983.797-2.49 3.528-3.935 6.146-4.92l-1.821-.752 1.82-1.041-2.844-.926C66.024 3.405 65.34 3 64.202 3c-2.618 0-3.7 2.315-4.78 4.34-.513 1.099-.854 1.562-1.822 2.199-1.991 1.33-4.61 3.414-7.057 6.018-1.252-.926-3.927-3.704-4.61-5.208-.284.347-.569 1.157-.569 1.157.285.29 3.358 3.414 4.496 4.803-.057.058-.17.173-.228.29-1.251.23-4.439.578-5.52.404l-.57 1.1c.798-.058 3.928-.463 5.294-.52-.399.462-.797.983-1.196 1.504-4.097.462-6.772 1.33-6.772 2.835 0 .231.057.52.057.81 0 .637-.228.868-.683 1.158-.285.173-.285.347-.17.52.113.174.739 1.1.739 1.273 0 .347-.285.637-.512.926-.228.232-.228.29-.057.579l1.195 2.546 1.252.926zM93.05 16.228c-.228.236-.454.59-.681.886l-.625-.945c2.156-3.013 7.944-4.43 11.348-4.726V9.848c-.454.118-.908.295-1.361.414-.568.118-1.135.295-1.59.236-.51 0-.907-.177-1.077-.472-.454-.65 0-1.654 1.475-2.6l-1.192-1.063c-.907 1.24-1.758 2.599-2.666 3.367-.851.768-1.702 1.122-2.383.59-.398-.294-.51-.413-.567-1.18.056-1.123.68-2.836 1.248-3.958l-1.362-.178c-.227 1.713-.908 3.131-1.645 4.313-.851 1.476-1.986 2.54-3.177 3.366L88 11.916c.965-.591 2.156-1.536 2.95-2.836.965-1.536 1.76-3.426 1.76-5.08l3.97.355c-.567.768-1.474 2.48-1.815 3.662-.17.65-.17 1.181.057 1.358.397.296 1.134-.236 1.872-1.003 1.022-1.182 2.043-2.895 2.44-3.486l2.95 2.481c-1.305.71-2.553 1.536-2.326 2.008.227.414 1.078.296 1.986 0 .737-.236 1.532-.59 2.156-1.003v4.075c-1.419 0-3.801.296-6.07 1.004.567.769 2.098 1.064 3.063 1.241L100.539 18c-2.496-1.123-4.426-1.713-7.49-1.772l1.022-.945c2.212.059 4.482.768 5.73 1.417l.17-1.24c-1.134-.177-2.553-.827-3.177-1.595-.964.355-1.929.827-2.723 1.418l-1.021.945z"/>
        <path d="M81.724 26.23l.915-2.04a36.357 36.357 0 0 1-3.031-4.08l-.801-1.359c-1.887-3.513-1.2-5.212-2.173-6.799-.858-1.246-4.862-.453-5.49-.34l1.143-1.87-2.287.17 1.944-2.266c.23-.34.286-.566.515-1.36C72.802 5.04 73.832 3 76.919 3c3.375 0 4.462 2.72 5.892 3.91a85.597 85.597 0 0 1 5.833 5.099l.8.736a34.517 34.517 0 0 1 2.974 3.343l.63.907c4.117 5.892 9.15 17.167 11.438 22.323.171.51.343 1.02.514 1.417a67.106 67.106 0 0 1-4.975-3.06l-.973-.68-1.887-1.36-1.03-.85a23.158 23.158 0 0 1-1.83-1.473l2.06 11.729c.114.736.743.623 1.2 0 .458-.624.687-.794.458-1.587l-1.887-8.669 1.03.85 1.83 7.31c.17.68.457.906 1.258.906.8.057.914-.227.8-.736l-2.002-6.12.973.68 1.887 5.496c.515 1.417 0 1.586-.858 1.586-.8 0-1.601-.226-2.059.057-.457.34-1.03 1.133-1.773 1.813-.572.623-1.487.51-1.658-.68l-2.288-13.541c-1.43-1.303-2.86-2.663-4.118-4.08-.514-.226-1.144-.51-1.715-.736l-.8-.397c-.344-.17-.573-.226-.63-.283-.63.736-1.258 1.587-1.944 2.153-.344.34-.63.51-1.144.51-.172 0-.4 0-.572-.114-.229-.113-.4-.34-.63-.68-.17-.226-.4-.566-.628-.906-.458-.736-.915-1.7-1.373-2.436-.457-.85-.915-1.473-.972-1.587-.057-.17-.286-.34-.286-.34-.286.34-.457 1.077-.457 1.53l-.801-.283c.057-.566.286-1.303.457-1.643 0-.284-.343-.68-.629-.68-.4 0-.8.396-.972 1.19l-.858.397c.057-1.303.515-2.72 1.83-2.72 1.03 0 1.716.793 2.173 1.53.515.736 2.174 2.946 2.517 3.4l.63.792c.114.51.342.794.457.963.228.34.457.34.8 0 .171-.113.629-.51 1.144-1.02.4-.396.8-.963.972-1.19.458.17 1.373.624 2.059.907-3.031-3.74-6.005-8.272-7.263-11.331-.515-1.304.514-1.7.972-.454 1.373 3.4 5.319 9.462 8.235 12.635 3.317 3.626 9.437 8.952 13.44 11.049-.572-1.134-1.315-2.72-2.23-4.59-4.861-2.72-9.723-7.705-12.01-12.011l.972.113c2.116 3.74 7.206 8.726 10.237 10.142-2.745-5.779-6.348-13.088-9.093-16.204-3.489-3.91-7.264-6.97-9.093-8.5C80.18 5.947 79.436 4.02 76.92 4.02c-2.116 0-3.26 1.53-3.66 3.003-.115.34-.172.51-.344.793l-1.03 1.19 2.174-.226-1.258 1.699s3.374-.736 4.575.85c1.259 1.7.458 3.626 2.574 7.422.915 1.643 3.145 4.59 3.889 5.27l-1.487 3.002-.63-.793zM48.514 26.648l-.514-.33c.286-.22.856-.604 1.427-.823.285-.11.627-.165.855-.165.571 0 1.085.22 1.541.494.742.385 1.598.824 2.282.824.228 0 .457-.055.742-.055.685 0 1.312.275 1.654.275.229 0 .343-.165.514-.384.342-.495.856-.88 1.484-1.1.627-.274 1.483-.384 2.339-.384.741 0 1.37.11 1.712.165 0 0-.514.604-.628.77-.742 0-2.054-.056-2.91.274-.57.22-.742.55-.742.934 0 .604.742.88 1.484 1.099.513.11 1.027.165 1.426.165.571 0 1.598-.22 2.625-.44a23.298 23.298 0 0 0 2.739-.66l.456.77c-1.37.44-2.796.88-4.108 1.099-.742.165-1.426.275-2.054.275-1.084 0-2.225-.44-3.138-.88-.799-.33-1.484-.714-2.168-.714-.685 0-1.37.22-1.997.605-.343.164-1.312.824-2.168 1.153-.685.22-1.199.385-1.883.385-.57 0-.97-.11-1.255-.33l1.027-.604c.17.11.399.165.513.165.171 0 .342-.055.742-.22.228-.055.57-.275.798-.385.4-.274.514-.44.685-.55.342-.22.456-.549.057-.878-.228-.165-.4-.33-.627-.495-.4-.22-.628-.384-1.313-.384-.741 0-1.312.165-1.597.33"/>
        <path d="M62.82 27s-.644-.17-.82-.17c.41-.566.996-1.019 1.406-1.302.878-.566 1.756-.906 3.162-.962a12.828 12.828 0 0 1 1.522-.113c.41.057 1.054.057 1.64.17.41.056.82.17 1.17.226.177.057.88.057 1.114 0 .995-.17 2.166-.51 2.752-.849l.234.906c-1.288.679-2.752 1.301-4.158 1.301-.644 0-1.405-.056-2.108-.113-1.17-.113-2.225-.283-2.576-.283-.996 0-2.401.453-3.338 1.189M62.174 32.088L61 31.528c1.622-.784 4.082-1.624 5.145-1.792 1.006-.168 2.18-.28 2.852-.504.335.784.95 1.568 1.789 1.568.336 0 .839-.224 1.398-.448.615-.28 1.174-.56 1.51-.672.335-.168 1.398-.616 2.348-1.064.336-.168 1.287-.616 1.343-.616l.615.336a13.316 13.316 0 0 1-.84 2.52c-.111.28-.278.504-.39.672-.28.28-.728.728-1.287 1.12-.615.448-1.398.896-2.18 1.344-.616.336-1.23.728-1.902 1.008l-.28-.616c.951-.56 1.958-1.232 2.852-1.904a8.88 8.88 0 0 0 1.063-.896c.224-.168.336-.336.447-.504.28-.336.727-1.12.84-1.456-.392.168-1.735.84-2.35 1.12-.726.392-1.845.952-2.516 1.288-.447.224-.895.336-1.23.336-.727 0-1.063-.504-1.23-.84-.448-.784-.895-.84-2.181-.84-1.454-.056-3.468.56-4.642 1.4"/>
        <path d="M69.286 28.706s-.172-.706-.286-1c0 0 .229-.059.514-.059.4 0 1.543.118 2 .118 1.714 0 2.343-.53 2.857-1 .457-.412.915-.765 2.057-.765 1.029 0 2.23.412 2.572.588l-.057 1a3.85 3.85 0 0 0-1.829-.47c-.4 0-.8 0-1.085.176-.286.177-.515.412-.8.647-.286.235-.686.47-1.258.706-.514.235-1.2.353-2.229.353-1.313 0-2.056-.235-2.456-.294M58 35.738l.797-.334c.684.278 1.766.611 2.506.611.456 0 .797-.166 1.082-.277.228-.111 2.905-1.388 4.214-1.833a3.106 3.106 0 0 1 1.025-.222c.342 0 .342.111.455.278.228.389 2.222 3.11 2.392 3.276 1.652-.5 3.36-1.222 4.328-2.11 1.025-.944 1.88-2.055 2.734-2.943.285-.333.683-.611.854-.722.854-.444 3.531-.5 4.613-.444l-.626.888c-1.994 0-3.075.222-3.588.555-.17.167-.513.5-.798.89-.683.832-1.423 1.998-1.708 2.22.57.39 1.196.722 2.22.722 1.652 0 2.849-1 3.475-1.555l.57.278a6.026 6.026 0 0 1-1.481 1.444c-.684.444-1.538.777-1.993.888-.969-.167-3.075-.61-3.588-.667-1.823.723-4.84 1.889-5.809 2.166-.17.056-.398.111-.683.111-.797.056-1.88.056-2.904 0-.684 0-1.367 0-1.709-.055l-.911-.889c.797.167 1.082.167 1.823.167 1.708 0 2.847-.278 3.189-.333.34-.111.398-.278.284-.555a4.623 4.623 0 0 0-.797-1.278c-.228-.222-.684-.61-.854-.722-.228-.166-.456-.222-1.14 0-.569.167-2.448 1.167-3.245 1.61-.399.167-.74.278-1.424.112-.797-.167-2.62-.833-3.303-1.277M62.5 15c.25 0 .5-.25.5-.5 0-.292-.25-.5-.5-.5-.292 0-.5.208-.5.5 0 .25.208.5.5.5M88 53.957c0-.507-.393-.957-.885-.957h-1.23c-.491 0-.885.45-.885.957l.05 15.086c0 .507.344.957.836.957h1.23c.491 0 .884-.45.884-.957V53.957zM91 54.708v.705c0 .352.22.587.547.587h9.632c.438 0 .821-.411.821-.88v-1.234c0-.47-.383-.94-.821-.881 0 0-9.304.998-9.632 1.057-.328 0-.547.294-.547.646M82.731 70c-2.626 0-4.238-1.858-4.238-3.94v-6.024h-.776c-.359 0-.717-.338-.717-.675v-1.013c0-.394.358-.676.717-.676h.776v-3.715c0-.507.418-.957 1.015-.957H81c.537 0 .955.45.955.957v3.715h2.328c.419 0 .717.282.717.676v1.013c0 .337-.298.675-.717.675h-2.328v5.573c0 1.07.717 1.858 1.97 1.858h.239c.418 0 .776.281.776.731v1.07c0 .394-.358.732-.776.732h-1.433zM56.53 63.065c.117-1.407 1.41-2.476 2.94-2.476 1.588 0 2.883 1.07 3.06 2.476h-6zm9.47 1.35C66 61.209 64 58 59.47 58 55.294 58 53 61.152 53 64.416 53 67.906 55.47 71 59.53 71c2.764 0 5.47-1.35 5.999-3.658.06-.28-.176-.732-.588-.732h-2a.948.948 0 0 0-.824.451c-.588.788-1.411 1.182-2.588 1.182-1.765 0-2.941-1.295-3.059-2.758h8.412c.765 0 1.118-.394 1.118-1.07zM93.53 63.065c.117-1.407 1.41-2.476 2.94-2.476 1.589 0 2.883 1.07 3 2.476h-5.94zm9.47 1.35c0-3.207-2-6.415-6.53-6.415-4.176 0-6.47 3.152-6.47 6.416C90 67.906 92.47 71 96.53 71c2.764 0 5.47-1.35 6-3.658.059-.28-.177-.732-.589-.732h-2a.947.947 0 0 0-.823.451c-.589.788-1.412 1.182-2.648 1.182-1.705 0-2.882-1.295-3-2.758h8.412c.765 0 1.118-.394 1.118-1.07z"/>
        <path d="M76.259 53.28H49.917c-.627 0-1.084.503-1.084 1.062l.057 10.178s-5.644-10.066-5.93-10.57c-.285-.503-.912-.95-1.71-.95h-2.167c-.627 0-1.083.503-1.083 1.062v14.876c0 .615.456 1.062 1.083 1.062h1.368c.628 0 1.084-.447 1.084-1.062l-.057-10.402s5.702 10.122 5.987 10.514c.285.559.855.95 1.654.95h1.995c.627 0 1.083-.447 1.083-1.062V55.796h24.062a.748.748 0 0 0 .741-.727v-1.063a.748.748 0 0 0-.741-.727"/>
        <path d="M71.472 60.476c1.117 0 1.954.394 2.29 1.126.11.337.39.393.78.393h1.564c.224 0 .559-.224.559-.562 0-1.801-2.178-3.433-5.193-3.433-3.127 0-5.193 1.52-5.193 3.883 0 1.857 1.452 2.927 3.183 3.433.837.17 2.233.506 2.903.732.67.169 1.34.394 1.34 1.013 0 1.013-1.005 1.294-2.177 1.294-1.061 0-2.122-.45-2.401-1.238-.168-.45-.503-.506-.95-.506h-1.563c-.28 0-.614.281-.614.618v.226C66 69.199 68.345 71 71.584 71 73.817 71 77 70.044 77 67.005c0-1.801-1.173-3.04-3.127-3.546-.726-.169-2.513-.675-2.904-.732-.726-.225-1.396-.45-1.396-1.013 0-.957.838-1.238 1.899-1.238"/>
    </g>
</svg>
