<svg xmlns="http://www.w3.org/2000/svg" width="120" height="61" viewBox="0 0 120 61">
    <g fill="none" fill-rule="evenodd">
        <path fill="#223547" d="M22 61h76V0H22z"/>
        <path fill="#FFF" d="M48.04 17h12.526L61 22.176h-7.06v2.54h5.735v5.132h-5.798V36H48V17z"/>
        <path fill="#FFF" d="M70.138 17.132c5.531 0 10.015 4.444 10.015 9.926s-4.484 9.926-10.015 9.926c-5.53 0-10.014-4.444-10.014-9.926s4.483-9.926 10.014-9.926"/>
        <path fill="#223547" d="M68.372 22.387l-.015 8.705c.145 1.067.94 1.697 1.651 1.705 1.392.015 1.613-.899 1.79-1.66v-8.489c-.123-.676-.49-1.605-1.652-1.674-.642-.039-1.575.576-1.774 1.413"/>
        <path fill="#FFF" d="M77.492 17.201h6.238l2.431 4.018 2.355-3.987h6.2l-5.397 9.327 6.054 10.202-6.307-.007-2.866-4.856-2.775 4.817h-6.139l5.802-10.072zM33.712 57.965V40.142h5.175l5.374 8.996v-9.02h4.457v17.847h-4.365L38.275 47.74l-.023 10.225zM49.826 40.08v17.862h11.666v-4.087h-7.216v-3.111h5.81v-3.857h-5.78v-2.65h7.033v-4.164zM82.156 52.703l4.22-.953c.45 1.053.84 2.151 2.813 2.136 1.43.077 1.788-.415 1.865-.976.176-1.221-1.086-1.544-2.171-1.851-1.766-.5-3.379-.991-4.526-2.029-.917-.83-1.82-1.751-1.406-4.832.558-2.412 2.056-4.218 5.22-4.602 4.718-.568 6.537 1.905 7.393 4.418l-3.937 1.26c-.535-.807-1.047-1.813-2.247-1.829-1.491-.015-1.79.891-1.843 1.314-.076.645.604 1.106 1.483 1.283 2.126.446 2.99.868 3.869 1.198 1.421.53 2.347 1.498 2.729 2.728.902 2.965-.214 5.731-2.37 7.075-1.644 1.022-3.654 1.53-6.78.669-2.096-.569-3.754-2.32-4.312-5.01M62.21 40.057h4.58l2.202 10.54 2.071-10.563h3.86l2.172 10.41 2.201-10.387h3.708l-4.197 17.94h-4.09l-2.094-10.234-2.05 10.156h-4.196z"/>
        <path fill="#FFF" d="M22.497 60.939L32.985 44.29v-4.87h3.035l11.138-17.67v-5.348h3.471L60.827.077h-9.693L22.16 60.969h.328zM22.038 60.9L43.13.046h-8.631L22.023 59.863V60.9z"/>
    </g>
</svg>
