<?xml version="1.0" encoding="UTF-8"?>
<svg width="1000px" height="318px" viewBox="0 0 1000 318" version="1.1" xmlns="http://www.w3.org/2000/svg" xmlns:xlink="http://www.w3.org/1999/xlink">
    <!-- Generator: Sketch 49 (51002) - http://www.bohemiancoding.com/sketch -->
    <title>Fisher_Price_Logo_2012</title>
    <desc>Created with Sketch.</desc>
    <defs></defs>
    <g id="Page-1" stroke="none" stroke-width="1" fill="none" fill-rule="evenodd">
        <g id="Artboard" transform="translate(-200.000000, -121.000000)" fill-rule="nonzero">
            <g id="Fisher_Price_Logo_2012" transform="translate(200.000000, 121.000000)">
                <path d="M752.578,271.565 C724.992,299.526 678.752,317.861 626.333,317.861 C573.76,317.861 527.346,299.409 499.807,271.313 C472.26,299.409 425.885,317.861 373.311,317.861 C320.592,317.861 274.112,299.313 246.612,271.1 C246.632,271.083 246.661,271.015 246.661,271.015 L246.612,271.1 C219.093,299.313 172.623,317.861 119.904,317.861 C71.325,317.861 28.021,302.094 0.001,277.512 L0.001,0.917 L999.981,0.917 L1000,276.386 C972.049,301.614 928.164,317.861 878.816,317.861 C826.377,317.861 780.107,299.526 752.578,271.565" id="path3368" fill="#223547"></path>
                <path d="M929.937,121.706 L932.469,121.706 C933.449,121.706 934.258,121.474 934.258,120.253 C934.258,119.03 933.449,118.808 932.469,118.808 L929.937,118.808 L929.937,121.706 Z M926.914,117.914 C926.914,116.93 927.627,116.43 928.435,116.43 L932.641,116.43 C935.663,116.43 937.492,117.316 937.492,120.388 C937.492,122.812 935.962,123.977 934.394,124.075 L936.759,127.173 C937.06,127.578 937.155,127.876 937.155,128.281 C937.155,128.589 936.827,129.367 935.739,129.367 C934.96,129.367 934.633,129.079 934.056,128.281 L930.965,124.074 L929.935,124.074 L929.935,127.905 C929.935,128.886 929.271,129.367 928.434,129.367 C927.625,129.367 926.913,128.886 926.913,127.905 L926.913,117.914 L926.914,117.914 Z M931.89,132.323 C936.714,132.323 940.591,128.558 940.591,123.014 C940.591,117.489 936.714,113.727 931.89,113.727 C927.022,113.727 923.208,117.489 923.208,123.014 C923.208,128.559 927.021,132.323 931.89,132.323 Z M931.89,110.771 C938.379,110.771 944.434,115.249 944.434,123.015 C944.434,130.813 938.379,135.288 931.89,135.288 C925.412,135.288 919.368,130.813 919.368,123.015 C919.367,115.248 925.412,110.771 931.89,110.771 Z" id="path3372" fill="#FFFFFF"></path>
                <path d="M860.537,159.418 L885.256,146.298 C886.699,145.519 887.883,144.748 887.883,143.21 C887.883,141.486 885.496,137.106 885.449,137.058 C881.069,129.329 875.119,125.259 868.296,125.259 C858.862,125.259 852.271,132.708 852.271,143.421 C852.271,146.878 853.436,152.979 854.888,157.186 C854.908,157.726 855.002,158.187 855.428,158.592 C855.62,159.014 855.899,159.227 856.043,159.312 C856.438,159.766 856.831,160.015 857.285,160.113 L858.055,160.238 C858.449,160.237 859.133,160.168 860.537,159.418 M914.709,137.175 C915.635,139.177 916.086,140.705 916.086,141.833 C916.086,142.419 915.923,142.563 915.334,142.785 L864.341,170.073 L863.887,170.344 C863.013,170.864 862.022,171.459 862.349,172.903 C862.385,173.665 862.666,174.184 863.521,175.29 C869.644,184.685 877.652,190.056 885.497,190.056 C891.561,190.056 897.452,185.437 898.319,179.968 L898.521,178.601 C898.674,174.771 901.563,172.105 905.528,172.105 C909.83,172.105 912.727,175.339 912.727,180.191 C912.786,185.339 910.686,190.211 906.643,194.312 C900.686,200.357 891.031,203.956 880.809,203.956 C851.663,203.956 830.381,183.338 830.178,154.945 C830.178,129.493 847.813,112.372 874.08,112.372 C892.676,112.37 906.73,120.973 914.709,137.175" id="path3376" fill="#FFFFFF"></path>
                <path d="M797.202,112.37 C768.164,112.37 748.642,130.541 748.642,157.58 C748.642,183.857 767.719,202.944 794.015,202.944 C812.729,202.944 828.533,191.953 828.533,178.958 C828.533,175.062 825.781,172.104 822.114,172.104 C818.465,172.104 816.164,174.145 814.855,178.535 C812.641,186.138 806.462,190.874 798.703,190.874 C785.181,190.874 775.373,174.329 775.373,151.526 C775.373,126.751 786.691,123.054 793.449,123.054 C798.222,123.054 802.929,125.517 806.714,130.012 C809.639,133.718 812.759,135.354 816.867,135.354 C821.238,135.354 824.819,131.824 824.982,127.405 L824.79,126.692 C824.79,118.134 813.711,112.37 797.202,112.37" id="path3380" fill="#FFFFFF"></path>
                <path d="M725.666,78.017 C717.91,78.017 711.603,84.58 711.603,92.646 C711.603,100.722 717.91,107.297 725.666,107.297 C733.426,107.297 739.731,100.722 739.731,92.646 C739.731,84.579 733.426,78.017 725.666,78.017 M714.126,186.012 L713.943,133.564 C713.943,129.318 713.144,125.864 711.24,121.765 C710.874,120.83 710.825,120.522 710.949,119.626 C710.949,116.315 714.627,115.825 716.821,115.825 L736.494,115.825 C741.424,115.825 741.424,117.712 741.424,118.635 C741.424,119.096 741.358,119.28 740.789,120.696 C739.18,124.402 739.18,125.789 739.18,129.522 L739.18,186.419 C739.18,190.527 739.451,191.597 741.407,195.149 C742.281,196.87 742.34,197.448 742.34,198.131 C742.34,199.692 742.34,201.337 734.62,201.337 L715.696,201.337 C711.133,201.337 711.133,199.371 711.133,198.717 C711.133,197.776 711.258,197.187 711.885,195.832 C713.926,193.163 714.126,191.412 714.126,186.012" id="path3384" fill="#FFFFFF"></path>
                <path d="M644.863,125.046 C645.468,126.289 645.468,127.5 645.468,128.31 L645.468,129.511 L645.294,185.012 C645.294,188.583 644.535,191.308 643.319,194.579 L642.552,196.581 C642.262,197.226 642.262,197.795 642.262,198.314 C642.215,199.41 642.503,199.872 642.762,200.132 C643.282,200.682 644.564,201.336 647.786,201.336 L667.449,201.336 C673.206,201.336 673.679,199.708 673.679,197.918 C673.679,196.763 673.581,196.089 672.688,194.964 L671.734,193.751 C670.339,191.987 670.125,190.843 670.125,187.84 L670.125,150.91 C670.125,143.017 674.729,136.364 680.184,136.364 C680.772,136.364 681.331,136.423 682.948,137.077 C685.827,138.058 690.043,138.578 692.536,138.578 C699.618,138.578 704.962,133.217 704.962,126.085 C704.962,119.203 699.301,114.408 691.228,114.408 C685.424,114.408 679.638,117.941 675.749,123.861 C675.17,124.794 674.613,124.977 673.796,125.199 L673.246,125.294 C671.532,125.294 671.12,124.217 670.936,123.099 L670.697,122.264 C670.697,115.611 669.916,115.611 666.141,115.611 L647.044,115.814 C643.945,115.814 642.347,116.969 642.262,119.278 C642.445,119.981 642.598,120.55 642.811,120.887 L644.264,123.216 C644.565,123.776 644.727,124.198 644.863,125.046" id="path3388" fill="#FFFFFF"></path>
                <path d="M608.882,113.793 C608.882,90.722 602.365,80.895 587.07,80.895 C584.259,80.895 582.625,81.327 581.902,81.586 L581.333,81.779 L581.084,82.338 C580.767,83.012 580.767,83.407 580.767,84.926 L580.584,139.416 C580.584,140.898 580.584,142.785 583.318,143.256 C583.605,143.256 584.106,143.305 584.702,143.334 C585.617,143.39 586.714,143.459 587.609,143.459 C597.332,143.459 608.882,138.3 608.882,113.793 M598.486,69.614 C621.01,69.614 636.757,86.718 636.757,111.167 C636.757,130.149 627.478,146.396 613.715,151.584 C607.157,153.942 598.901,155.144 589.111,155.144 L582.768,155.144 L582.123,155.471 C581.547,155.742 580.583,156.233 580.612,157.512 L580.38,158.774 L580.38,184.589 C580.38,190.123 580.38,190.981 581.642,193.637 L582.768,196.293 C582.827,196.457 582.827,196.977 582.827,197.314 C582.827,199.335 582.143,201.337 573.96,201.337 L555.615,201.337 C551.418,201.337 551.418,199.43 551.418,198.524 C551.418,197.427 551.582,196.841 551.841,196.302 L552.544,194.8 C553.403,193.289 554.424,190.941 554.424,189.256 L554.768,83.878 L554.605,83.126 C554.605,81.585 554.249,80.345 553.931,79.132 C553.827,78.756 553.721,78.363 553.565,77.755 L552.95,76.217 C551.89,74.127 551.861,73.27 551.978,72.423 C551.978,70.353 552.159,69.43 556.529,69.43" id="path3392" fill="#FFFFFF"></path>
                <path d="M538.674,141.545 C538.609,141.601 538.501,141.689 538.413,141.774 C533.735,145.441 530.166,147.443 526.401,149.582 L522.099,152.006 C516.191,155.385 514.581,157.021 514.581,159.657 L514.581,174.403 L515.687,173.212 L516.286,172.797 C516.757,172.421 517.333,172.008 517.987,171.565 C518.903,170.717 519.838,170.247 520.567,169.87 L520.905,169.69 L532.079,163.056 C537.548,159.928 538.327,158.581 538.49,151.957" id="path3396" fill="#FFFFFF"></path>
                <path d="M462.769,125.046 C463.375,126.289 463.375,127.5 463.375,128.31 L463.375,129.511 L463.183,185.012 C463.183,188.603 462.432,191.334 461.22,194.579 L460.479,196.581 C460.2,197.226 460.2,197.795 460.2,198.314 C460.142,199.41 460.43,199.872 460.673,200.132 C461.182,200.682 462.472,201.336 465.696,201.336 L485.351,201.336 C491.135,201.336 491.607,199.708 491.607,197.918 C491.607,196.724 491.463,196.05 490.596,194.964 L489.654,193.751 C488.267,191.997 488.047,190.796 488.047,187.84 L488.047,150.91 C488.047,143.017 492.648,136.364 498.076,136.364 C498.682,136.364 499.23,136.423 500.868,137.077 C503.756,138.058 507.97,138.578 510.445,138.578 C517.53,138.578 522.872,133.217 522.872,126.085 C522.872,119.203 517.223,114.408 509.127,114.408 C503.331,114.408 497.546,117.941 493.658,123.861 C493.081,124.777 492.512,124.986 491.714,125.199 L491.165,125.294 C489.442,125.294 489.048,124.198 488.845,123.092 L488.595,122.264 C488.595,115.611 487.824,115.611 484.043,115.611 L464.954,115.814 C461.855,115.814 460.266,116.969 460.2,119.278 C460.335,119.905 460.509,120.54 460.739,120.906 L462.183,123.255 C462.451,123.747 462.615,124.12 462.769,125.046" id="path3400" fill="#FFFFFF"></path>
                <path d="M399.396,158.061 L424.094,144.931 C425.538,144.162 426.733,143.4 426.733,141.862 C426.733,140.397 424.99,136.933 424.297,135.719 C419.917,127.99 413.988,123.9 407.144,123.9 C397.711,123.9 391.119,131.368 391.119,142.071 C391.119,145.518 392.294,151.619 393.746,155.836 C393.756,156.366 393.852,156.817 394.276,157.223 C394.429,157.579 394.67,157.819 394.863,157.965 C395.324,158.465 395.739,158.685 396.104,158.754 L396.913,158.898 C397.287,158.898 397.971,158.813 399.396,158.061 M453.586,135.817 C454.521,137.79 454.953,139.311 454.953,140.456 C454.953,141.035 454.818,141.198 454.203,141.428 L403.217,168.698 L402.755,168.977 C401.889,169.506 400.907,170.082 401.225,171.528 C401.272,172.288 401.533,172.827 402.389,173.913 C408.531,183.288 416.529,188.688 424.365,188.688 C430.448,188.688 436.319,184.049 437.196,178.6 L437.397,177.226 C437.551,173.413 440.439,170.747 444.405,170.747 C448.697,170.747 451.575,173.962 451.575,178.784 C451.652,183.962 449.563,188.833 445.52,192.944 C439.553,198.979 429.909,202.568 419.687,202.568 C390.541,202.568 369.249,181.969 369.057,153.576 C369.057,128.107 386.691,111.003 412.949,111.003 C431.544,111.003 445.606,119.596 453.586,135.817" id="path3404" fill="#FFFFFF"></path>
                <path d="M315.761,134.343 C321.122,134.343 322.873,136.655 325.136,143.191 L340.122,185.339 C340.835,187.276 341.191,188.247 341.383,188.65 C341.856,189.913 342.076,191.5 342.076,192.474 C342.076,193.474 341.903,194.175 341.739,194.839 L341.662,195.205 L341.22,196.39 C340.932,197.39 340.768,198.277 340.768,198.921 C340.768,201.087 343.955,201.328 345.321,201.328 L369.856,201.328 C374.044,201.328 374.044,199.287 374.044,198.515 C373.938,197.766 373.629,197.006 372.369,195.659 C369.865,193.164 368.576,191.77 367.181,187.448 L348.468,133.014 C343.964,120.214 337.062,113.995 327.36,113.995 C321.719,113.995 315.54,116.056 311.978,119.095 C311.43,119.732 310.987,119.906 310.477,120.106 C310.362,120.145 310.236,120.184 310.063,120.279 L309.736,120.462 L309.379,120.462 C307.213,120.462 307.213,117.901 307.213,116.815 L307.012,83.532 C307.012,78.881 307.233,78.266 308.291,76.205 C308.514,75.734 308.725,75.321 308.878,75.001 C308.975,74.837 309.014,74.723 309.081,74.618 L309.215,74.252 C309.264,74.059 309.264,73.28 309.264,72.826 C309.264,70.844 308.667,69.613 305.645,69.613 L283.545,69.613 C281.09,69.613 279.348,70.931 279.348,72.826 C279.348,73.49 279.608,74.088 280.349,75.665 C281.716,78.177 282.168,81.2 282.168,87.948 L282.351,186.002 C282.351,189.486 281.898,190.902 279.993,195.436 C279.348,196.811 279.348,197.187 279.348,198.122 C279.348,198.979 279.348,201.328 283.726,201.328 L305.259,201.328 C307.349,201.328 309.455,200.452 309.455,198.515 C309.455,198.024 308.897,196.811 308.475,195.927 C307.213,193.424 307.012,191.969 307.012,188.639 L307.012,142.824 C307.012,137.443 310.197,134.343 315.761,134.343" id="path3408" fill="#FFFFFF"></path>
                <path d="M216.581,183.808 C213.491,183.808 209.775,189.555 209.775,196.705 C209.775,199.989 210.324,201.327 224.261,201.327 L247.66,201.327 C265.101,201.327 273.937,194.82 273.937,181.969 C273.937,177.773 272.821,173.798 270.607,170.217 C266.372,163.827 257.353,154.355 247.103,145.529 L241.875,141.1 C237.978,137.789 235.744,134.227 235.744,131.329 C235.744,127.769 238.95,125.277 243.54,125.277 C246.938,125.277 249.749,126.442 251.876,128.741 L254.657,131.532 C256.698,133.737 258.93,134.747 261.703,134.747 C266.459,134.747 270.193,131.397 270.193,127.096 C270.029,119.279 260.442,114.198 245.802,114.198 C225.243,114.198 210.323,124.467 210.323,138.597 C210.323,146.258 213.094,150.291 226.705,162.564 C230.431,165.972 239.392,174.818 239.487,174.904 C243.694,179.015 244.781,180.968 244.781,184.396 C244.867,186.636 244.31,188.39 243.069,189.699 C241.336,191.498 238.496,192.279 233.798,192.279 C228.842,192.279 225.617,190.777 221.902,186.781 C219.507,184.203 218.38,183.808 216.581,183.808" id="path3412" fill="#FFFFFF"></path>
                <path d="M186.462,78.017 C178.714,78.017 172.399,84.58 172.399,92.646 C172.399,100.722 178.714,107.297 186.462,107.297 C194.221,107.297 200.534,100.722 200.534,92.646 C200.535,84.579 194.221,78.017 186.462,78.017 M173.391,186.012 L173.199,133.564 C173.199,129.301 172.39,125.864 170.494,121.765 C170.128,120.83 170.071,120.513 170.196,119.626 C170.196,116.315 173.891,115.825 176.067,115.825 L195.733,115.825 C200.671,115.825 200.671,117.712 200.671,118.635 C200.671,119.079 200.622,119.253 200.171,120.407 L200.045,120.676 C198.429,124.402 198.429,125.786 198.429,129.521 L198.429,186.418 C198.429,190.517 198.698,191.576 200.652,195.148 C201.557,196.869 201.615,197.447 201.615,198.13 C201.615,199.689 201.615,201.336 193.866,201.336 L174.952,201.336 C170.379,201.336 170.379,199.37 170.379,198.716 C170.379,197.804 170.495,197.225 171.121,195.828 C173.16,193.163 173.391,191.422 173.391,186.012" id="path3416" fill="#FFFFFF"></path>
                <path d="M91.008,69.421 C83.856,69.421 83.269,71.145 83.269,73.242 C83.125,74.263 83.183,74.743 84.299,77.554 C86.108,82.107 86.455,85.437 86.455,89.981 L86.455,180.365 C86.455,185.349 85.512,190.606 83.905,194.803 L83.549,195.785 C83.269,196.41 83.269,197.008 83.269,197.719 C83.212,198.673 83.433,199.364 83.943,199.913 C84.81,200.828 86.513,201.339 88.765,201.339 L108.604,201.339 C115.621,201.339 115.987,199.874 115.987,197.508 C115.987,197.045 115.987,196.334 115.881,195.939 L115.005,194.061 C113.59,190.836 113.023,182.819 113.003,182.482 L113.003,129.733 C113.003,126.442 114.11,125.863 117.229,125.863 L138.194,125.863 C143.747,125.863 147.847,126.442 151.938,127.77 C153.007,128.097 153.796,128.097 154.489,128.097 C155.384,128.097 156.617,128.097 156.617,123.456 L156.433,113.014 C156.433,110.924 155.73,110.77 154.662,110.77 C154.372,110.77 153.661,110.904 153.112,111.214 L151.207,111.905 C149.879,112.369 148.791,112.579 147.55,112.579 L116.854,112.579 C114.468,112.579 113.332,110.23 113.043,108.827 L113.004,108.536 L113.004,97.238 C113.004,86.362 119.752,81.288 134.257,81.288 C141.408,81.288 149.407,84.281 154.152,88.749 L155.846,90.365 C156.962,91.732 159.523,92.782 161.418,92.782 C162.642,92.782 166.356,92.782 166.356,85.936 L166.356,72.616 C166.356,69.391 165.105,68.014 162.169,68.014 C161.245,68.014 160.649,68.168 159.406,68.544 C156.365,69.42 155.806,69.42 152.236,69.42" id="path3420" fill="#FFFFFF"></path>
            </g>
        </g>
    </g>
</svg>